<svg id="Layer_1" data-name="Layer 1" xmlns="http://www.w3.org/2000/svg" viewBox="0 0 463.09 463.09"><defs><style>.cls-1{fill:#02c39a;}.cls-2{fill:#fff;}</style></defs><title>Artboard 1</title><rect class="cls-1" width="463.09" height="463.09"/><path class="cls-2" d="M91.39,261.51c0-24.29-19.3-27-19.3-27v-9.08s19.3-2.73,19.3-27V180c0-38.58,23.6-41.54,30.87-41.54h2v8.86h-1.36c-5.22,0-21.79,2.27-21.79,32.45V200.9c0,22-17.93,28.83-17.93,28.83v.45s17.93,5.91,17.93,28.83v24.06c0,30.19,16.57,32.46,21.79,32.46h1.36v8.85a7,7,0,0,1-2,.23c-7.27,0-30.87-2.95-30.87-41.77Z"/><path class="cls-2" d="M157,198.63H142V190h15V157.78h9.54V190h29.73v8.62H166.52v62.42c0,30,17.93,33.82,27,33.82a26.69,26.69,0,0,0,5.22-.45v8.85a31.53,31.53,0,0,1-5.68.46c-11.8,0-36.09-4.32-36.09-42Z"/><path class="cls-2" d="M275.24,186.6c27,0,40.63,16.12,40.63,16.12l-5.9,7.72a49.32,49.32,0,0,0-34.73-14.53c-26.56,0-48.57,19.75-48.57,50.39,0,30.19,22,49.93,48.57,49.93,25,0,37.9-16.34,37.9-16.34l5,7.95s-14.76,17.7-42.9,17.7c-32,0-58.56-23.15-58.56-59.24S243.69,186.6,275.24,186.6Z"/><path class="cls-2" d="M340.15,315.53c5.22,0,21.79-2.27,21.79-32.46V259c0-22.92,17.94-28.83,17.94-28.83v-.45s-17.94-6.81-17.94-28.83V179.79c0-30.18-16.57-32.45-21.79-32.45h-1.36v-8.86h2c7.27,0,30.87,3,30.87,41.54v18.39c0,24.28,19.3,27,19.3,27v9.08s-19.3,2.72-19.3,27v21.33c0,38.82-23.6,41.77-30.87,41.77a7,7,0,0,1-2-.23v-8.85Z"/></svg>