<?xml version="1.0" standalone="no"?>
<!DOCTYPE svg PUBLIC "-//W3C//DTD SVG 20010904//EN"
 "http://www.w3.org/TR/2001/REC-SVG-20010904/DTD/svg10.dtd">
<svg version="1.0" xmlns="http://www.w3.org/2000/svg"
 width="700.000000pt" height="700.000000pt" viewBox="0 0 700.000000 700.000000"
 preserveAspectRatio="xMidYMid meet">
<metadata>
Created by potrace 1.11, written by Peter Selinger 2001-2013
</metadata>
<g transform="translate(0.000000,700.000000) scale(0.100000,-0.100000)"
fill="#000000" stroke="none">
<path d="M0 3500 l0 -3500 3500 0 3500 0 0 3500 0 3500 -3500 0 -3500 0 0
-3500z m1880 1340 l0 -70 -38 0 c-90 0 -188 -60 -238 -146 -60 -102 -66 -143
-74 -469 -7 -276 -9 -305 -30 -364 -37 -105 -113 -191 -225 -257 -16 -9 -12
-14 37 -41 89 -50 164 -148 198 -258 8 -26 15 -151 20 -360 6 -294 9 -326 29
-390 30 -92 73 -159 129 -197 48 -33 118 -58 164 -58 28 0 28 0 28 -65 0 -79
-4 -81 -97 -66 -190 32 -316 159 -374 376 -19 70 -22 120 -28 385 -8 326 -12
355 -66 439 -44 71 -154 150 -207 151 -15 0 -18 10 -18 70 0 59 3 72 18 76
108 34 204 121 243 221 21 53 23 80 29 338 8 313 18 379 76 502 72 151 222
249 387 252 l37 1 0 -70z m3363 55 c176 -37 293 -162 348 -370 18 -68 22 -123
28 -365 7 -256 10 -290 29 -338 44 -113 127 -189 245 -226 14 -4 17 -17 17
-76 0 -61 -2 -70 -18 -70 -37 0 -123 -53 -171 -106 -88 -96 -93 -121 -102
-474 -8 -317 -15 -379 -58 -489 -42 -104 -117 -189 -212 -239 -57 -30 -187
-59 -214 -48 -11 4 -15 22 -15 69 l0 64 51 6 c107 13 190 76 241 183 48 101
58 186 58 472 0 279 8 339 56 433 34 68 97 135 161 171 29 17 53 32 53 34 0 2
-15 11 -32 20 -90 45 -170 141 -210 249 -20 54 -22 87 -29 355 -7 307 -13 349
-58 443 -49 102 -138 167 -238 175 l-53 4 0 69 c0 69 0 69 28 69 15 0 58 -7
95 -15z m-2725 -522 l2 -243 225 0 225 0 0 -65 0 -65 -225 0 -226 0 3 -557 c3
-554 3 -558 26 -623 65 -181 185 -270 369 -274 l83 -1 0 -69 0 -69 -107 6
c-60 3 -129 12 -154 20 -136 44 -232 125 -292 247 -69 139 -70 151 -74 768
l-4 552 -110 0 -109 0 0 65 0 65 110 0 110 0 0 238 c0 131 3 242 7 246 4 4 37
6 73 4 l65 -3 3 -242z m1877 -223 c103 -26 245 -96 315 -154 30 -26 56 -50 58
-56 2 -5 -15 -34 -38 -64 l-42 -55 -61 50 c-156 127 -374 188 -571 160 -158
-22 -281 -81 -397 -189 -155 -145 -229 -328 -229 -569 0 -399 259 -697 645
-745 214 -26 452 49 606 191 l53 48 39 -61 39 -60 -38 -34 c-111 -97 -263
-174 -409 -208 -113 -27 -310 -25 -425 4 -168 41 -311 123 -427 245 -114 120
-184 258 -218 426 -24 117 -16 354 14 461 82 283 295 507 567 595 153 49 364
55 519 15z"/>
</g>
</svg>
